<svg xmlns="http://www.w3.org/2000/svg" xmlns:xlink="http://www.w3.org/1999/xlink" width="300" zoomAndPan="magnify" viewBox="0 0 224.87999 225" height="300" preserveAspectRatio="xMidYMid meet" version="1.2"><defs><clipPath id="97bed3b13d"><path d="M 93.359375 84 L 131.589844 84 L 131.589844 112.5 L 93.359375 112.5 Z M 93.359375 84 "/></clipPath><clipPath id="61552a65b8"><path d="M 93.359375 53 L 131.589844 53 L 131.589844 82 L 93.359375 82 Z M 93.359375 53 "/></clipPath><clipPath id="ee661e1e9a"><path d="M 93.359375 22.546875 L 131.589844 22.546875 L 131.589844 51 L 93.359375 51 Z M 93.359375 22.546875 "/></clipPath><clipPath id="589c65dc60"><path d="M 93.359375 174 L 131.589844 174 L 131.589844 202.820312 L 93.359375 202.820312 Z M 93.359375 174 "/></clipPath><clipPath id="f37fe651d8"><path d="M 93.359375 143 L 131.589844 143 L 131.589844 172 L 93.359375 172 Z M 93.359375 143 "/></clipPath><clipPath id="a9aa946330"><path d="M 93.359375 112.867188 L 131.589844 112.867188 L 131.589844 141 L 93.359375 141 Z M 93.359375 112.867188 "/></clipPath></defs><g id="ff59a3d4d8"><g clip-rule="nonzero" clip-path="url(#97bed3b13d)"><path style=" stroke:none;fill-rule:nonzero;fill:#703a99;fill-opacity:1;" d="M 112.363281 112.519531 L 93.402344 84.460938 L 112.363281 95.402344 L 131.324219 84.460938 Z M 112.363281 112.519531 "/></g><g clip-rule="nonzero" clip-path="url(#61552a65b8)"><path style=" stroke:none;fill-rule:nonzero;fill:#a26ac4;fill-opacity:1;" d="M 112.363281 81.570312 L 93.402344 53.511719 L 112.363281 64.453125 L 131.324219 53.511719 Z M 112.363281 81.570312 "/></g><g clip-rule="nonzero" clip-path="url(#ee661e1e9a)"><path style=" stroke:none;fill-rule:nonzero;fill:#d9b3e6;fill-opacity:1;" d="M 112.363281 50.621094 L 93.402344 22.5625 L 112.363281 33.503906 L 131.324219 22.5625 Z M 112.363281 50.621094 "/></g><g clip-rule="nonzero" clip-path="url(#589c65dc60)"><path style=" stroke:none;fill-rule:nonzero;fill:#703a99;fill-opacity:1;" d="M 112.363281 202.839844 L 93.402344 174.78125 L 112.363281 185.722656 L 131.324219 174.78125 Z M 112.363281 202.839844 "/></g><g clip-rule="nonzero" clip-path="url(#f37fe651d8)"><path style=" stroke:none;fill-rule:nonzero;fill:#a26ac4;fill-opacity:1;" d="M 112.363281 171.890625 L 93.402344 143.832031 L 112.363281 154.773438 L 131.324219 143.832031 Z M 112.363281 171.890625 "/></g><g clip-rule="nonzero" clip-path="url(#a9aa946330)"><path style=" stroke:none;fill-rule:nonzero;fill:#d9b3e6;fill-opacity:1;" d="M 112.363281 140.941406 L 93.402344 112.882812 L 112.363281 123.824219 L 131.324219 112.882812 Z M 112.363281 140.941406 "/></g></g></svg>